PathFileType	4	(X/Y/Z)	RBDS025static.trc
DataRate	CameraRate	NumFrames	NumMarkers	Units	OrigDataRate	OrigDataStartFrame	OrigNumFrames
150.000000	150.000000	4	48	mm	150.000000	112	150
Frame#	Time	L.Ankle			L.Ankle.Medial			L.ASIS			L.GTR			L.Heel.Bottom			L.Heel.Lateral			L.Heel.Top			L.HF			L.Iliac.Crest			L.Knee			L.Knee.Medial			L.MT1			L.MT2			L.MT5			L.PSIS			L.Shank.Bottom.Lateral			L.Shank.Bottom.Medial			L.Shank.Top.Lateral			L.Shank.Top.Medial			L.Thigh.Bottom.Lateral			L.Thigh.Bottom.Medial			L.Thigh.Top.Lateral			L.Thigh.Top.Medial			L.TT			R.Ankle			R.Ankle.Medial			R.ASIS			R.GTR			R.Heel.Bottom			R.Heel.Lateral			R.Heel.Top			R.HF			R.Iliac.Crest			R.Knee			R.Knee.Medial			R.MT1			R.MT2			R.MT5			R.PSIS			R.Shank.Bottom.Lateral			R.Shank.Bottom.Medial			R.Shank.Top.Lateral			R.Shank.Top.Medial			R.Thigh.Bottom.Lateral			R.Thigh.Bottom.Medial			R.Thigh.Top.Lateral			R.Thigh.Top.Medial			R.TT			
		X1	Y1	Z1	X2	Y2	Z2	X3	Y3	Z3	X4	Y4	Z4	X5	Y5	Z5	X6	Y6	Z6	X7	Y7	Z7	X8	Y8	Z8	X9	Y9	Z9	X10	Y10	Z10	X11	Y11	Z11	X12	Y12	Z12	X13	Y13	Z13	X14	Y14	Z14	X15	Y15	Z15	X16	Y16	Z16	X17	Y17	Z17	X18	Y18	Z18	X19	Y19	Z19	X20	Y20	Z20	X21	Y21	Z21	X22	Y22	Z22	X23	Y23	Z23	X24	Y24	Z24	X25	Y25	Z25	X26	Y26	Z26	X27	Y27	Z27	X28	Y28	Z28	X29	Y29	Z29	X30	Y30	Z30	X31	Y31	Z31	X32	Y32	Z32	X33	Y33	Z33	X34	Y34	Z34	X35	Y35	Z35	X36	Y36	Z36	X37	Y37	Z37	X38	Y38	Z38	X39	Y39	Z39	X40	Y40	Z40	X41	Y41	Z41	X42	Y42	Z42	X43	Y43	Z43	X44	Y44	Z44	X45	Y45	Z45	X46	Y46	Z46	X47	Y47	Z47	X48	Y48	Z48	

113	0.7466666666666667	698.0488891601563	100.4033966064453	1055.613403320313	735.6080932617188	114.4940567016602	1130.635620117188	845.0111694335938	967.87646484375	1126.835571289063	759.3529052734375	889.1212158203125	1069.187866210938	638.4216918945313	40.84264755249023	1097.131469726563	664.0179443359375	62.17481994628906	1052.959716796875	648.0298461914063	85.05948638916016	1097.135375976563	714.7529907226563	450.693359375	1044.449340820313	762.2875366210938	1033.322387695313	1074.623901367188	731.8043823242188	515.281005859375	1053.915893554688	729.291259765625	493.9866943359375	1174.5849609375	846.8341064453125	56.01891708374023	1130.108520507813	859.27880859375	68.90260314941406	1083.557739257813	818.0325927734375	49.93508529663086	1018.226196289063	678.3540649414063	1012.184814453125	1178.97998046875	712.4872436523438	198.1015472412109	1042.894653320313	665.4475708007813	199.1802978515625	1073.350463867188	706.8092651367188	277.863037109375	1033.264404296875	660.8170166015625	279.5107421875	1061.618286132813	737.4182739257813	631.5669555664063	1044.039672851563	678.484130859375	626.5281372070313	1086.802978515625	728.50048828125	740.6079711914063	1046.296264648438	676.2600708007813	735.597900390625	1092.395874023438	774.30126953125	419.1666564941406	1087.986694335938	697.7689819335938	103.0773086547852	1409.013061523438	732.1744995117188	118.9159164428711	1330.16845703125	849.7623901367188	982.6619873046875	1335.799926757813	772.3328857421875	898.20947265625	1403.401977539063	635.2830810546875	40.93062973022461	1366.203002929688	661.7068481445313	62.53078842163086	1407.23291015625	643.4531860351563	85.29874420166016	1366.48193359375	730.9012451171875	456.3663635253906	1425.496337890625	783.0862426757813	1042.645263671875	1374.487060546875	738.2012329101563	522.03076171875	1417.048217773438	735.0462036132813	503.4794616699219	1295.30712890625	846.4451293945313	57.13728713989258	1329.41796875	857.4303588867188	69.35569000244141	1372.55908203125	818.3544311523438	47.42338562011719	1440.6513671875	681.8265991210938	1019.084655761719	1277.0498046875	703.3838500976563	202.7952270507813	1422.865478515625	662.483154296875	205.9166107177734	1391.994873046875	699.0288696289063	286.9865417480469	1434.142333984375	656.8067626953125	286.0174560546875	1401.68212890625	736.384521484375	627.9334106445313	1424.051635742188	677.5288696289063	627.7639770507813	1382.920166015625	733.2438354492188	738.69287109375	1425.288330078125	677.4828491210938	737.83056640625	1385.2431640625	780.4157104492188	431.5733642578125	1373.243896484375	
114	0.7533333333333334	698.0479736328125	100.3981781005859	1055.598876953125	735.607421875	114.4956893920898	1130.6279296875	845.0308837890625	967.8827514648438	1126.842529296875	759.3850708007813	889.1205444335938	1069.189331054688	638.416015625	40.83938980102539	1097.1318359375	664.024658203125	62.16740798950195	1052.9521484375	648.0308837890625	85.04742431640625	1097.131591796875	714.7577514648438	450.6785888671875	1044.440307617188	762.30810546875	1033.32275390625	1074.626831054688	731.8356323242188	515.2747802734375	1053.925170898438	729.3043212890625	493.9916687011719	1174.600830078125	846.967041015625	55.97208786010742	1130.064819335938	859.1444091796875	68.32576751708984	1083.127319335938	818.033935546875	49.92528915405273	1018.220031738281	678.3610229492188	1012.171569824219	1178.965209960938	712.4844360351563	198.1063079833984	1042.88525390625	665.443603515625	199.1649627685547	1073.352294921875	706.8194580078125	277.8550415039063	1033.266357421875	660.82568359375	279.5012817382813	1061.606079101563	737.4208374023438	631.5626831054688	1044.031372070313	678.4948120117188	626.5194702148438	1086.788208007813	728.513671875	740.6148681640625	1046.295288085938	676.2838134765625	735.58935546875	1092.394775390625	774.305908203125	419.1545715332031	1087.978637695313	697.7798461914063	103.0742492675781	1409.013549804688	732.1489868164063	118.9082489013672	1330.178833007813	849.7786865234375	982.6593627929688	1335.7958984375	772.3507690429688	898.2144775390625	1403.386840820313	635.2689208984375	40.93181991577148	1366.200927734375	661.704833984375	62.53634262084961	1407.2333984375	643.4376220703125	85.300048828125	1366.479614257813	730.9007568359375	456.3736572265625	1425.490356445313	783.10400390625	1042.639770507813	1374.48193359375	738.2021484375	522.0302124023438	1417.06884765625	735.0491943359375	503.4749145507813	1295.327392578125	846.4374389648438	57.12450790405273	1329.411010742188	857.4282836914063	69.32809448242188	1372.556640625	818.3558349609375	47.41850662231445	1440.655151367188	681.845458984375	1019.074523925781	1277.051391601563	703.3831176757813	202.7877349853516	1422.859741210938	662.475341796875	205.9148864746094	1391.994384765625	699.0253295898438	286.9957580566406	1434.146850585938	656.8035888671875	286.0209045410156	1401.689819335938	736.3812255859375	627.9364013671875	1424.063720703125	677.5288696289063	627.7645263671875	1382.91455078125	733.2442626953125	738.69189453125	1425.280639648438	677.4877319335938	737.8286743164063	1385.236938476563	780.4232788085938	431.5726928710938	1373.249267578125	
115	0.76	698.043701171875	100.3787460327148	1055.59765625	735.5989990234375	114.4918899536133	1130.631225585938	845.0357666015625	967.8577880859375	1126.832641601563	759.3978881835938	889.1051025390625	1069.1923828125	638.4227294921875	40.83343124389648	1097.125854492188	664.0267944335938	62.14609146118164	1052.940795898438	648.0375366210938	85.02635955810547	1097.115478515625	714.7679443359375	450.6585083007813	1044.44384765625	762.3128051757813	1033.310180664063	1074.6201171875	731.8292236328125	515.2581787109375	1053.926391601563	729.3228759765625	493.9930419921875	1174.617919921875	846.836181640625	56.01750564575195	1130.11181640625	859.2623901367188	68.88121032714844	1083.537109375	818.0186157226563	49.91304397583008	1018.205017089844	678.3859252929688	1012.161437988281	1178.967529296875	712.485595703125	198.0966949462891	1042.880126953125	665.4515991210938	199.1567687988281	1073.347045898438	706.8303833007813	277.845458984375	1033.255981445313	660.8352661132813	279.4926147460938	1061.59619140625	737.43505859375	631.5554809570313	1044.025146484375	678.5267944335938	626.501708984375	1086.783081054688	728.530517578125	740.5972290039063	1046.29638671875	676.2994384765625	735.5774536132813	1092.38720703125	774.306640625	419.1279602050781	1087.979125976563	697.7708740234375	103.0708847045898	1409.0224609375	732.1472778320313	118.8955841064453	1330.173095703125	849.7915649414063	982.6692504882813	1335.787963867188	772.3731689453125	898.2183837890625	1403.393188476563	635.2742309570313	40.92332077026367	1366.19677734375	661.7142944335938	62.52383804321289	1407.235107421875	643.4368896484375	85.29177856445313	1366.478637695313	730.9027099609375	456.3685607910156	1425.5009765625	783.1102294921875	1042.640014648438	1374.475341796875	738.2000732421875	522.03515625	1417.074096679688	735.05224609375	503.4740905761719	1295.327270507813	846.4402465820313	57.1222038269043	1329.409545898438	857.4240112304688	69.34380340576172	1372.5517578125	818.3545532226563	47.41271209716797	1440.650512695313	681.8560791015625	1019.077941894531	1277.046875	703.3781127929688	202.786376953125	1422.866455078125	662.47412109375	205.9103393554688	1391.9873046875	699.0272827148438	286.9940795898438	1434.142822265625	656.7945556640625	286.0228576660156	1401.685302734375	736.3810424804688	627.9425659179688	1424.0654296875	677.5228881835938	627.7706298828125	1382.912353515625	733.2597045898438	738.6958618164063	1425.283569335938	677.4927978515625	737.840087890625	1385.23095703125	780.4185180664063	431.5544738769531	1373.230712890625	
116	0.7666666666666667	698.0473022460938	100.3595123291016	1055.592651367188	735.5950927734375	114.4934387207031	1130.633178710938	845.0516967773438	967.8367919921875	1126.833251953125	759.41845703125	889.0912475585938	1069.189819335938	638.40673828125	40.83486557006836	1097.129272460938	664.0238647460938	62.13217163085938	1052.932250976563	648.049072265625	85.00332641601563	1097.114501953125	714.7968139648438	450.6477661132813	1044.451904296875	762.331298828125	1033.291381835938	1074.60498046875	731.8361206054688	515.23681640625	1053.91015625	729.3365478515625	494.0238037109375	1174.635375976563	846.8291625976563	56.01909255981445	1130.110107421875	859.2538452148438	68.85282135009766	1083.523071289063	818.0237426757813	49.89801025390625	1018.196655273438	678.4208374023438	1012.124145507813	1178.944702148438	712.4849853515625	198.08056640625	1042.881958007813	665.465087890625	199.1352691650391	1073.346923828125	706.8363037109375	277.8216247558594	1033.261840820313	660.8492431640625	279.4709167480469	1061.593383789063	737.4618530273438	631.5350952148438	1044.016479492188	678.5460205078125	626.49072265625	1086.770385742188	728.55517578125	740.583984375	1046.28955078125	676.3177490234375	735.5556640625	1092.373779296875	774.3093872070313	419.1051635742188	1087.967529296875	697.7789306640625	103.0696487426758	1409.021362304688	732.1444702148438	118.8883285522461	1330.162719726563	849.8018798828125	982.6744384765625	1335.791015625	772.3941040039063	898.075439453125	1403.2744140625	635.263427734375	40.92914962768555	1366.198852539063	661.719482421875	62.51250839233398	1407.22802734375	643.4285888671875	85.2943115234375	1366.469604492188	730.894775390625	456.3745727539063	1425.504638671875	783.123046875	1042.645629882813	1374.47705078125	738.1995239257813	522.041748046875	1417.068603515625	735.0325317382813	503.4957885742188	1295.324462890625	846.44384765625	57.08719635009766	1329.40185546875	857.4382934570313	69.32484436035156	1372.544311523438	818.3631591796875	47.39374542236328	1440.647583007813	681.8638305664063	1019.074523925781	1277.041381835938	703.3811645507813	202.7966461181641	1422.8720703125	662.4793090820313	205.9083251953125	1391.987426757813	699.0228881835938	286.984619140625	1434.144775390625	656.7977294921875	286.0162048339844	1401.677978515625	736.388671875	627.9488525390625	1424.058715820313	677.5210571289063	627.7779541015625	1382.9150390625	733.2611083984375	738.6929931640625	1425.275390625	677.498779296875	737.83837890625	1385.232666015625	780.4193115234375	431.5237426757813	1373.219604492188	
